<svg width="80" height="80" viewBox="0 0 80 80" fill="none" xmlns="http://www.w3.org/2000/svg">
<path d="M40 80C62.0914 80 80 62.0914 80 40C80 17.9086 62.0914 0 40 0C17.9086 0 0 17.9086 0 40C0 62.0914 17.9086 80 40 80Z" fill="#7B2BF9"/>
<path fill-rule="evenodd" clip-rule="evenodd" d="M65.6707 40.7634C65.6654 40.9369 65.4292 40.9827 65.3609 40.8228C65.3317 40.7538 65.3018 40.6846 65.2713 40.6153C65.2156 40.4886 65.2313 40.3413 65.3144 40.2305C65.3315 40.2079 65.3665 40.162 65.4083 40.1074C65.5206 39.9606 65.6825 39.9825 65.6825 40.1454C65.6825 40.3592 65.6775 40.5443 65.6707 40.7634ZM64.4277 37.3689C64.2363 37.7136 63.7455 37.7295 63.533 37.3971C63.5 37.3457 63.4668 37.2943 63.4333 37.2427C62.6673 36.0665 61.7856 34.9119 60.801 33.7898C60.5593 33.5143 60.757 33.0819 61.1236 33.0817H61.1324C63.4333 33.0817 64.6395 33.65 65.0076 34.344C65.3149 34.9245 65.2207 35.9396 64.4277 37.3689ZM63.9135 49.4012C63.7901 49.7153 63.6609 50.0273 63.5252 50.3362C63.504 50.3788 63.4841 50.4219 63.4622 50.4642C62.6154 52.0942 61.1944 53.3777 59.2954 54.2709C58.8693 54.4711 58.4032 54.0813 58.5301 53.628C59.1607 51.3712 59.6379 48.9238 59.9471 46.358C60.0048 45.8796 60.2407 45.4404 60.6054 45.1251C61.3863 44.4495 62.1155 43.7749 62.7864 43.105L62.7937 43.0975C63.1238 42.7681 63.6869 42.9099 63.8213 43.3566C64.4841 45.5598 64.5209 47.6118 63.9135 49.4012ZM58.7517 57.5491C58.5586 57.7555 58.3614 57.9595 58.1605 58.1605C57.8104 58.51 57.4521 58.8482 57.086 59.1748C56.855 59.3805 56.5058 59.1232 56.6365 58.8426C56.6737 58.7626 56.7108 58.682 56.7475 58.6006C56.9014 58.2614 57.0499 57.9134 57.1945 57.5589C57.2287 57.4753 57.3008 57.4128 57.3884 57.3904C57.7525 57.298 58.1076 57.196 58.4533 57.0844C58.7336 56.9943 58.9532 57.334 58.7517 57.5491ZM54.9611 55.5118C54.1946 55.6229 53.3885 55.6947 52.5452 55.7244C50.4876 55.7964 48.3119 55.6189 46.077 55.2074C45.8045 55.1573 45.7521 54.7889 45.9992 54.664C46.4867 54.4172 46.9745 54.1649 47.462 53.9065C50.8817 52.0939 54.0725 50.1126 56.8656 48.0812C57.0751 47.9289 57.3637 48.1087 57.3212 48.3643C56.9339 50.6923 56.3975 52.8839 55.7239 54.8732C55.6091 55.2122 55.3154 55.4605 54.9611 55.5118ZM54.1707 58.6135C52.3372 62.2195 50.0791 64.2441 47.8903 64.2033C45.5114 64.161 43.1393 61.6837 41.3826 57.407L41.3806 57.4022C41.269 57.1308 41.3972 56.82 41.6662 56.7032C41.6848 56.6949 41.7034 56.6868 41.7221 56.6785C41.8374 56.6284 41.9668 56.6193 42.0882 56.6536C45.3742 57.5757 48.6118 58.057 51.6452 58.057C51.9748 58.057 52.3022 58.0514 52.6268 58.0401C53.0068 58.0265 53.3807 58.0051 53.7481 57.9759C54.0888 57.9489 54.3258 58.3088 54.1707 58.6135ZM43.3133 65.471C42.2232 65.611 41.1169 65.6828 39.9999 65.6828C35.0078 65.6828 30.2331 64.2681 26.1338 61.6283C25.8517 61.4464 25.9716 61.0088 26.3068 60.9934C26.3763 60.9901 26.4412 60.9866 26.4984 60.9831C27.5402 60.9154 28.6824 60.7628 29.9201 60.5243C32.5529 60.0179 35.4795 59.1491 38.5439 57.9792C38.8186 57.8744 39.1253 58.0106 39.2371 58.2826L39.2391 58.2874C40.4267 61.1788 41.8883 63.3635 43.5294 64.7533C43.8006 64.9832 43.6658 65.4257 43.3133 65.471ZM28.4613 47.4761C30.7244 45.6333 33.3761 43.7945 36.2848 42.0537C36.3473 45.7741 36.7552 49.3458 37.4772 52.5721C36.3984 52.1121 35.3229 51.6054 34.2567 51.0517C32.1915 49.9784 30.2485 48.7762 28.4613 47.4761ZM21.4233 57.4446C20.8834 56.4259 21.5812 54.0664 25.126 50.4803L25.1278 50.4785C25.4979 50.1046 25.4624 49.4909 25.0492 49.1653C24.9072 49.0537 24.7662 48.9409 24.6261 48.8281C24.2731 48.5428 23.7622 48.569 23.4416 48.89C23.3713 48.9603 23.319 49.0132 23.3036 49.0291C21.5316 50.8479 20.2914 52.5316 19.5966 54.046C19.3997 54.4751 18.8049 54.5215 18.5445 54.1276C15.7944 49.9703 14.3172 45.0989 14.3172 39.9999C14.3172 38.177 14.5066 36.383 14.875 34.6404C14.9307 34.3768 15.3026 34.3599 15.3807 34.6178C15.9135 36.377 16.7808 38.1966 17.9792 40.0366C19.5923 42.514 21.7197 44.8955 24.2406 47.08C25.1011 47.8256 26.0099 48.5468 26.9577 49.2426C28.8791 50.6525 30.9669 51.9537 33.1882 53.1077C34.1728 53.6194 35.1317 54.1077 36.1138 54.5499C36.6605 54.7959 37.2828 54.8151 37.8408 54.596C38.3039 54.4147 38.7702 54.2261 39.2394 54.0299C39.7496 53.8171 40.0263 53.2608 39.8911 52.7247C39.8742 52.6577 39.8609 52.6039 39.8533 52.5721C39.08 49.3176 38.6501 45.6539 38.5995 41.8165L38.598 41.8172C38.5975 41.7717 38.5977 41.7253 38.5972 41.6792C38.595 41.4695 38.5962 41.2582 38.5925 41.0489C38.5912 40.9822 38.5932 40.8691 38.594 40.8022C38.5945 40.7755 38.594 40.749 38.594 40.7226L38.595 40.7223C38.5962 40.4821 38.598 40.2421 38.6023 40.0011C38.6141 39.3429 38.6378 38.6894 38.6718 38.0412L38.6705 38.042C38.909 33.4113 39.6942 29.0602 40.9434 25.4C41.059 25.0613 40.8785 24.6936 40.5398 24.578C40.2096 24.4652 39.8798 24.3575 39.5504 24.2542C39.2172 24.1497 38.8612 24.3295 38.7486 24.6601C37.3946 28.6351 36.559 33.3509 36.3362 38.3411C36.3077 38.9742 35.9632 39.5504 35.418 39.8735C32.4625 41.6251 29.7481 43.482 27.4032 45.3538C26.9147 45.7438 26.2169 45.729 25.7445 45.3193C23.3943 43.2816 21.4162 41.0683 19.9209 38.772C16.9825 34.2599 16.2842 30.0093 17.9552 26.8051C17.9598 26.7976 17.9638 26.7898 17.9681 26.7825C18.1811 26.4289 18.4027 26.0801 18.6334 25.7362C20.5535 23.1946 24.1273 21.7217 28.867 21.5552C29.1669 21.5446 29.4689 21.5394 29.7736 21.5394C32.6808 21.5394 35.8008 22.0191 38.974 22.9347L38.9747 22.9339C39.0442 22.9541 39.1137 22.975 39.1832 22.9954C39.2369 23.0112 39.2905 23.0261 39.3441 23.0422C40.0774 23.2613 40.8127 23.5043 41.5491 23.7692C41.5662 23.7753 41.5836 23.7815 41.6007 23.7876C41.7926 23.8568 41.9842 23.9279 42.1758 24.0001C42.2358 24.0228 42.2959 24.0457 42.3559 24.0689C42.4135 24.091 42.4712 24.1124 42.5291 24.1348L42.5284 24.1359C44.0781 24.7357 45.6265 25.4332 47.1555 26.228C50.1151 27.7656 52.8242 29.5681 55.1817 31.5456C50.6825 32.5763 45.4527 34.5646 40.1945 37.2455C39.952 37.3694 39.7924 37.6131 39.777 37.8851C39.7586 38.211 39.7345 38.8662 39.7171 39.3869C39.7063 39.7138 40.052 39.9304 40.3416 39.7783L40.3446 39.7765C45.5507 37.0428 50.7464 34.9995 55.2084 33.9197C56.0424 33.718 56.5823 32.917 56.4652 32.0671C56.3831 31.4733 56.2907 30.8889 56.1885 30.3147C56.0601 29.5935 55.6652 28.9486 55.0825 28.5049C52.9927 26.9129 50.6895 25.4526 48.224 24.1714C46.5625 23.3081 44.8766 22.5517 43.1871 21.9065C42.8258 21.7685 42.6709 21.3414 42.8595 21.0037C44.6001 17.89 46.6703 16.1462 48.6871 16.1462C48.708 16.1462 48.7289 16.1462 48.7498 16.1467C51.1287 16.1892 53.5008 18.6664 55.2575 22.943C56.1467 25.1079 56.8357 27.6044 57.3066 30.3175C57.304 30.3152 57.3015 30.3132 57.2993 30.3109C57.5002 31.4688 57.6621 32.6654 57.7822 33.893C57.7719 33.8996 57.7608 33.9054 57.7505 33.9119C57.7646 33.9263 57.7795 33.9406 57.7938 33.9552C57.993 36.0151 58.0771 38.1601 58.0378 40.3489C58.0132 41.7334 57.9394 43.0987 57.82 44.4346C54.6373 47.0067 50.7021 49.5664 46.3767 51.8587C44.9551 52.6122 43.5339 53.3135 42.1265 53.9591C42.1046 53.9692 42.0829 53.979 42.061 53.9891C41.9535 54.0382 41.8457 54.0881 41.7382 54.1367L41.7357 54.1359C40.5695 54.6635 39.4144 55.1515 38.2784 55.5972L38.2789 55.5982C38.2147 55.6234 38.151 55.6476 38.0871 55.6725C38.0072 55.7037 37.9274 55.7345 37.8478 55.7652C37.6572 55.8382 37.4673 55.9102 37.278 55.981C37.2258 56.0004 37.1735 56.0208 37.1213 56.0399C36.8914 56.1253 36.6628 56.2081 36.4349 56.2897C36.4064 56.2998 36.378 56.3106 36.3498 56.3207L36.3488 56.3202C33.9144 57.1872 31.5955 57.8422 29.4822 58.2489C24.3756 59.232 21.971 58.4778 21.4233 57.4446ZM25.091 19.0824C29.4132 15.9873 34.578 14.3172 39.9999 14.3172C41.431 14.3172 42.8437 14.4343 44.2279 14.6627C44.5986 14.7239 44.723 15.1971 44.4273 15.429C43.0859 16.4806 41.8397 18.0366 40.7367 20.0544C40.4675 20.5467 39.8966 20.7874 39.3567 20.6353C35.7026 19.6067 32.1074 19.1227 28.7857 19.2393C27.5603 19.2823 26.3999 19.4065 25.3098 19.6074C25.0036 19.6638 24.8379 19.2634 25.091 19.0824ZM60.345 37.8C60.3374 37.5056 60.7152 37.38 60.8859 37.6197C61.0957 37.9141 61.2979 38.21 61.4915 38.5073C61.7489 38.9027 61.9883 39.2958 62.211 39.6864C62.3497 39.9299 62.3165 40.2353 62.1276 40.4423C61.8277 40.7717 61.5023 41.1122 61.149 41.4652C61.0201 41.5939 60.8887 41.7228 60.7547 41.852C60.5885 42.0127 60.3097 41.8903 60.3188 41.6591C60.3352 41.2378 60.3473 40.815 60.3548 40.3902C60.3704 39.5199 60.3666 38.6559 60.345 37.8ZM57.6815 21.3729C57.8429 21.526 58.0026 21.6816 58.1605 21.8395C60.6353 24.3144 62.5416 27.2063 63.8163 30.3558C63.945 30.6733 63.6753 31.0057 63.3381 30.945C62.6005 30.8126 61.7705 30.7534 60.8516 30.7687C60.2148 30.7793 59.6613 30.3331 59.5495 29.7061C59.0501 26.9061 58.3282 24.3197 57.401 22.0624C57.3481 21.9337 57.2947 21.8065 57.2406 21.6806C57.1227 21.4059 57.4647 21.1669 57.6815 21.3729ZM67.3951 34.1763C66.2886 28.9191 63.6869 24.0888 59.7988 20.2007C54.5104 14.9123 47.4791 12 39.9999 12C32.5209 12 25.4894 14.9123 20.2009 20.2007C18.9147 21.487 17.7707 22.8768 16.7732 24.3504C16.4766 24.7453 16.2109 25.1623 15.9747 25.5987C13.3837 29.904 12 34.8457 12 39.9999C12 47.4791 14.9125 54.5104 20.2009 59.7988C25.4894 65.0872 32.5209 68 39.9999 68C47.4791 68 54.5104 65.0872 59.7988 59.7988C62.2948 57.303 64.2608 54.4187 65.6417 51.2826C65.8104 50.9351 65.9578 50.5792 66.0844 50.2164C67.3415 47.0042 68 43.5528 68 39.9999C68 38.0443 67.799 36.1201 67.4105 34.2489C67.4052 34.2247 67.4004 34.2005 67.3951 34.1763Z" fill="white"/>
</svg>
